<?xml version="1.0" encoding="utf-8"?>
<!-- Generator: Adobe Illustrator 27.5.0, SVG Export Plug-In . SVG Version: 6.00 Build 0)  -->
<svg version="1.1" xmlns="http://www.w3.org/2000/svg" xmlns:xlink="http://www.w3.org/1999/xlink" x="0px" y="0px"
	 viewBox="0 0 3710 3710" style="enable-background:new 0 0 3710 3710;" xml:space="preserve">
<g id="Background">
	<g>
		<g>
			<rect style="fill:#FFFFFF;" width="3710" height="3710"/>
		</g>
	</g>
</g>
<g id="Illustration">
	<g>
		<path style="fill:#F4F7FA;" d="M1056.871,558.491c-96.495,140.663,16.647,368.712-126.534,474.502
			c-139.376,102.979-310.595-65.818-441.948,22.826c-194.855,131.498-159.271,733.206,125.617,1107.059
			c85.675,112.43,157.263,156.176,188.968,283.329c68.081,273.031-171.19,435.447-125.657,570.483
			c102.524,304.053,1679.264,559.19,2311.922-354.591c295.477-426.773,339.688-1043.037,75.688-1511.093
			C2587.884,305.237,1273.388,242.869,1056.871,558.491z"/>
		<g>
			<g>
				<g>
					<path style="fill:#D8DEE8;" d="M1019.583,1416.91c13.489,12.273,35.198,10.383,48.488-4.222
						c13.29-14.606,13.129-36.396-0.36-48.67c-0.698-0.636-1.433-1.211-2.172-1.771c5.497-8.592,10.298-17.456,14.376-26.522
						c0.899,0.245,1.805,0.478,2.744,0.648c18.327,3.327,37.046-9.205,41.811-27.992c4.765-18.786-6.229-36.713-24.556-40.039
						c-0.958-0.174-1.917-0.279-2.875-0.368c0.678-9.772,0.606-19.521-0.215-29.163c0.955-0.255,1.911-0.527,2.865-0.868
						c18.253-6.511,28.969-26.328,23.932-44.26c-5.037-17.933-23.918-27.19-42.172-20.679c-0.936,0.334-1.836,0.725-2.732,1.126
						c-4.206-8.345-9.132-16.362-14.75-23.987c0.732-0.688,1.456-1.39,2.145-2.146c13.29-14.606,29.656-30.052,15.975-42.113
						c-31.644-27.901-51.533-16.941-64.824-2.335c-0.689,0.757-1.319,1.544-1.935,2.337c-8.12-4.875-16.565-9.025-25.268-12.427
						c0.316-0.929,0.619-1.862,0.864-2.825c4.764-18.786,13.09-27.371-4.77-32.661c-38.946-11.533-56.832,1.828-61.597,20.614
						c-0.249,0.982-0.43,1.958-0.594,2.934c-9.677,0.089-19.389,0.935-29.054,2.531c-0.178-0.946-0.374-1.89-0.636-2.828
						c-5.037-17.932-23.918-27.189-42.172-20.677c-18.255,6.512-28.969,26.328-23.932,44.26c0.258,0.919,0.576,1.799,0.903,2.672
						c-8.642,4.913-17.014,10.528-25.051,16.809c-0.628-0.684-1.269-1.361-1.968-1.997c-13.489-12.274-35.198-10.383-48.488,4.222
						c-13.29,14.606-13.129,36.396,0.359,48.67c0.699,0.636,1.433,1.21,2.174,1.771c-5.498,8.592-10.299,17.456-14.377,26.522
						c-0.9-0.244-1.806-0.478-2.743-0.648c-18.328-3.326-37.047,9.205-41.813,27.992c-4.766,18.786,6.229,36.712,24.557,40.038
						c0.957,0.173,1.915,0.28,2.873,0.368c-0.679,9.773-0.606,19.521,0.215,29.164c-0.955,0.255-1.911,0.527-2.864,0.868
						c-18.254,6.512-28.968,26.328-23.932,44.26c5.037,17.932,33.755,33.521,52.009,27.009c0.936-0.334-8.001-7.054-7.106-7.456
						c4.206,8.345,9.132,16.362,14.75,23.987c-0.731,0.689-1.456,1.39-2.144,2.146c-13.29,14.606-13.129,36.396,0.36,48.671
						c13.489,12.273,35.198,10.383,48.489-4.222c0.688-0.757,1.319-1.544,1.935-2.337c8.12,4.875,16.564,9.025,25.268,12.428
						c-0.316,0.929-0.62,1.862-0.864,2.825c-4.765,18.785,6.229,36.711,24.556,40.038c18.326,3.326,37.047-9.206,41.811-27.992
						c0.249-0.982,0.43-1.959,0.594-2.934c9.677-0.089,19.39-0.935,29.055-2.53c0.178,0.945,0.374,1.89,0.637,2.827
						c5.037,17.932,23.917,27.191,42.172,20.678c18.255-6.512,28.969-26.328,23.932-44.261c-0.258-0.918-0.576-1.798-0.903-2.67
						c8.642-4.914,17.013-10.528,25.05-16.81C1018.244,1415.597,1018.885,1416.274,1019.583,1416.91z M823.448,1365.619
						c-48.977-44.564-49.562-123.68-1.308-176.71c48.254-53.031,127.073-59.895,176.049-15.331
						c48.975,44.564,49.561,123.679,1.308,176.71C951.242,1403.32,872.423,1410.183,823.448,1365.619z"/>
					<path style="fill:#D8DEE8;" d="M1082.659,1336.372c18.327,3.326,37.046-9.206,41.812-27.992
						c4.765-18.786-6.229-36.713-24.556-40.038c-0.958-0.174-1.917-0.279-2.875-0.368c0.68-9.773,0.606-19.521-0.215-29.163
						c0.955-0.254,1.911-0.527,2.865-0.868c18.253-6.511,44.314-27.211,37.465-44.531c-13-32.874-37.451-26.919-55.705-20.408
						c-0.936,0.334-1.836,0.724-2.731,1.126c-4.207-8.345-9.133-16.361-14.751-23.986c0.732-0.688,1.456-1.39,2.145-2.146
						c7.233-7.949,10.449-18.023,9.733-27.535c-21.939,21.951-43.71,44.066-65.258,66.394
						c36.26,45.773,32.676,115.331-11.093,163.434c-37.089,40.761-92.226,54.211-137.999,38.033
						c-3.569,4.829-7.107,9.697-10.81,14.433c-10.046,12.852-20.833,25.178-31.624,37.483c4.105,2.007,8.277,3.846,12.513,5.503
						c-0.316,0.929-0.62,1.863-0.864,2.825c-4.765,18.785,2.211,37.78,35.104,44.979c18.195,3.982,26.498-14.147,31.263-32.933
						c0.248-0.981,0.43-1.958,0.594-2.933c9.676-0.09,19.389-0.935,29.055-2.531c0.178,0.946,0.374,1.89,0.637,2.827
						c5.037,17.933,35.391,33.314,53.646,26.802c18.255-6.512,17.494-32.451,12.457-50.384c-0.258-0.918-0.576-1.798-0.903-2.671
						c8.642-4.913,17.014-10.527,25.05-16.809c0.628,0.685,1.27,1.362,1.969,1.996c13.489,12.275,35.198,10.384,48.488-4.222
						c13.289-14.605,13.129-36.396-0.36-48.67c-0.699-0.636-1.433-1.211-2.173-1.771c5.497-8.592,10.298-17.456,14.376-26.521
						C1080.814,1335.968,1081.721,1336.201,1082.659,1336.372z"/>
					
						<linearGradient id="SVGID_1_" gradientUnits="userSpaceOnUse" x1="1040.2418" y1="2499.4849" x2="418.3357" y2="1711.7382" gradientTransform="matrix(0.9642 0.2652 -0.2652 0.9642 694.0338 -1156.5148)">
						<stop  offset="0.0036" style="stop-color:#E38DDD"/>
						<stop  offset="1" style="stop-color:#9571F6"/>
					</linearGradient>
					<path style="fill:url(#SVGID_1_);" d="M1035.919,1423.466c13.489,12.273,35.198,10.383,48.489-4.222
						c13.29-14.606,13.129-36.396-0.361-48.67c-0.698-0.636-1.432-1.21-2.172-1.771c5.497-8.593,10.298-17.456,14.377-26.522
						c0.899,0.245,1.805,0.478,2.744,0.648c18.327,3.326,37.046-9.206,41.812-27.992c4.764-18.786-6.229-36.712-24.556-40.039
						c-0.958-0.173-1.917-0.278-2.875-0.367c0.679-9.773,0.607-19.522-0.216-29.164c0.956-0.255,1.911-0.528,2.865-0.867
						c18.254-6.512,28.969-26.328,23.932-44.261c-5.037-17.932-23.918-27.19-42.172-20.678c-0.935,0.333-1.837,0.724-2.731,1.126
						c-4.207-8.345-9.133-16.362-14.751-23.987c0.731-0.688,1.456-1.39,2.145-2.146c13.29-14.606,13.128-36.396-0.361-48.67
						c-13.488-12.274-35.198-10.384-48.488,4.222c-0.688,0.757-1.319,1.544-1.935,2.337c-8.12-4.875-16.564-9.025-25.268-12.428
						c0.315-0.928,0.619-1.862,0.863-2.825c4.765-18.786-6.229-36.711-24.557-40.038c-18.326-3.327-37.046,9.206-41.811,27.991
						c-0.249,0.982-0.43,1.959-0.594,2.934c-9.677,0.089-19.389,0.935-29.054,2.531c-0.178-0.945-0.374-1.89-0.637-2.828
						c-5.036-17.932-23.917-27.19-42.172-20.678c-18.254,6.513-28.968,26.329-23.932,44.261c0.258,0.919,0.575,1.799,0.904,2.671
						c-8.642,4.914-17.015,10.528-25.052,16.81c-0.628-0.685-1.269-1.361-1.968-1.997c-13.488-12.274-35.198-10.384-48.488,4.222
						c-13.29,14.605-13.129,36.396,0.36,48.67c0.699,0.636,1.433,1.21,2.173,1.771c-5.497,8.593-10.299,17.456-14.376,26.522
						c-0.9-0.244-1.806-0.478-2.744-0.649c-18.327-3.325-37.048,9.207-41.812,27.993c-4.766,18.786,6.229,36.712,24.555,40.038
						c0.957,0.174,1.917,0.279,2.874,0.368c-0.679,9.772-0.607,19.521,0.216,29.164c-0.956,0.255-1.911,0.527-2.865,0.867
						c-18.254,6.512-28.968,26.328-23.932,44.26c5.036,17.933,23.918,27.19,42.172,20.679c0.935-0.334,1.837-0.724,2.731-1.126
						c4.207,8.345,9.133,16.362,14.751,23.987c-0.732,0.688-1.456,1.39-2.144,2.147c-13.291,14.606-13.129,36.396,0.36,48.67
						c13.489,12.273,35.198,10.383,48.488-4.223c0.689-0.756,1.319-1.543,1.935-2.337c8.12,4.876,16.565,9.025,25.268,12.428
						c-0.315,0.928-0.619,1.862-0.864,2.825c-4.764,18.785,6.229,36.711,24.556,40.037c18.327,3.327,37.047-9.206,41.811-27.991
						c0.25-0.982,0.43-1.959,0.594-2.934c9.677-0.089,19.389-0.935,29.054-2.531c0.178,0.944,0.374,1.89,0.638,2.826
						c5.036,17.933,23.917,27.192,42.171,20.679c18.255-6.512,28.969-26.328,23.933-44.261c-0.258-0.918-0.576-1.798-0.904-2.67
						c8.641-4.913,17.014-10.528,25.051-16.809C1034.579,1422.153,1035.22,1422.83,1035.919,1423.466z M839.783,1372.176
						c-48.975-44.564-49.561-123.679-1.308-176.71c48.254-53.03,127.073-59.894,176.049-15.33
						c48.975,44.563,49.561,123.679,1.308,176.71C967.579,1409.877,888.76,1416.74,839.783,1372.176z"/>
				</g>
				<g>
					<g>
						<path style="fill:#D8DEE8;" d="M1838.775,1424.597c29.055,26.437,75.815,22.366,104.441-9.095
							c28.626-31.46,28.279-78.396-0.776-104.833c-1.504-1.37-3.085-2.607-4.679-3.815c11.84-18.508,22.181-37.599,30.966-57.127
							c1.937,0.527,3.888,1.029,5.91,1.396c39.475,7.165,79.796-19.828,90.061-60.293c10.264-40.465-13.417-79.077-52.892-86.242
							c-2.064-0.373-4.129-0.6-6.192-0.791c1.462-21.05,1.306-42.049-0.464-62.817c2.058-0.55,4.116-1.136,6.171-1.869
							c39.318-14.026,62.398-56.71,51.549-95.335c-10.849-38.626-51.519-58.567-90.836-44.541c-2.015,0.719-3.955,1.56-5.883,2.425
							c-9.061-17.975-19.672-35.243-31.773-51.666c1.576-1.483,3.135-2.994,4.618-4.624c28.627-31.46,63.877-64.731,34.412-90.709
							c-68.162-60.098-111.001-36.489-139.629-5.029c-1.482,1.63-2.841,3.326-4.168,5.034
							c-17.49-10.501-35.679-19.439-54.428-26.769c0.68-1.999,1.334-4.01,1.861-6.085c10.262-40.463,28.195-58.956-10.275-70.348
							c-83.888-24.842-122.415,3.937-132.679,44.4c-0.537,2.115-0.926,4.22-1.28,6.32c-20.843,0.193-41.762,2.014-62.582,5.451
							c-0.385-2.037-0.805-4.072-1.371-6.091c-10.849-38.626-51.517-58.566-90.837-44.54c-39.319,14.027-62.397,56.71-51.548,95.335
							c0.555,1.98,1.24,3.875,1.946,5.754c-18.615,10.584-36.648,22.676-53.958,36.207c-1.352-1.475-2.734-2.932-4.24-4.301
							c-29.055-26.438-75.815-22.366-104.44,9.094c-28.627,31.46-28.279,78.396,0.775,104.833c1.505,1.37,3.086,2.608,4.68,3.815
							c-11.84,18.508-22.183,37.599-30.967,57.127c-1.938-0.527-3.889-1.029-5.908-1.397c-39.478-7.163-79.798,19.829-90.063,60.294
							c-10.264,40.465,13.418,79.076,52.894,86.241c2.061,0.374,4.127,0.602,6.19,0.792c-1.462,21.051-1.306,42.048,0.463,62.818
							c-2.057,0.55-4.116,1.136-6.17,1.869c-39.317,14.025-62.397,56.709-51.548,95.335c10.848,38.626,72.708,72.202,112.025,58.176
							c2.015-0.72-17.235-15.195-15.306-16.06c9.06,17.976,19.671,35.243,31.771,51.667c-1.575,1.483-3.135,2.994-4.618,4.624
							c-28.626,31.461-28.279,78.396,0.775,104.834c29.055,26.437,75.815,22.365,104.442-9.094c1.483-1.63,2.84-3.326,4.169-5.034
							c17.489,10.502,35.678,19.44,54.427,26.768c-0.68,2-1.334,4.012-1.861,6.085c-10.263,40.464,13.417,79.076,52.893,86.241
							c39.475,7.165,79.797-19.83,90.061-60.293c0.535-2.115,0.926-4.219,1.279-6.319c20.844-0.192,41.764-2.013,62.582-5.451
							c0.384,2.036,0.806,4.071,1.372,6.089c10.849,38.625,51.516,58.568,90.836,44.541c39.32-14.027,62.398-56.709,51.55-95.336
							c-0.557-1.978-1.24-3.873-1.947-5.752c18.615-10.583,36.647-22.676,53.958-36.207
							C1835.889,1421.77,1837.27,1423.227,1838.775,1424.597z M1416.306,1314.121c-105.492-95.989-106.753-266.401-2.817-380.627
							c103.936-114.227,273.711-129.01,379.202-33.021c105.491,95.988,106.753,266.401,2.818,380.627
							C1691.571,1395.326,1521.797,1410.109,1416.306,1314.121z"/>
						<path style="fill:#D8DEE8;" d="M1974.638,1251.123c39.476,7.164,79.796-19.83,90.061-60.294
							c10.263-40.465-13.417-79.078-52.893-86.241c-2.064-0.375-4.129-0.6-6.192-0.792c1.463-21.051,1.306-42.048-0.464-62.817
							c2.057-0.548,4.116-1.136,6.171-1.871c39.318-14.025,95.453-58.61,80.7-95.918c-28.002-70.809-80.67-57.983-119.987-43.957
							c-2.015,0.719-3.955,1.56-5.881,2.425c-9.062-17.976-19.673-35.242-31.774-51.667c1.576-1.482,3.135-2.993,4.618-4.622
							c15.58-17.122,22.508-38.82,20.966-59.31c-47.257,47.281-94.15,94.916-140.563,143.011
							c78.101,98.592,70.382,248.42-23.893,352.03c-79.889,87.8-198.652,116.768-297.246,81.921
							c-7.687,10.4-15.31,20.886-23.284,31.087c-21.637,27.683-44.873,54.233-68.116,80.737c8.842,4.324,17.829,8.285,26.951,11.852
							c-0.68,2.001-1.334,4.013-1.861,6.086c-10.263,40.464,4.763,81.377,75.614,96.883c39.192,8.578,57.076-30.471,67.34-70.936
							c0.535-2.114,0.926-4.219,1.279-6.319c20.843-0.192,41.763-2.014,62.581-5.451c0.384,2.037,0.806,4.071,1.373,6.089
							c10.849,38.628,76.233,71.758,115.552,57.73c39.32-14.028,37.682-69.899,26.833-108.525c-0.557-1.979-1.24-3.874-1.946-5.753
							c18.615-10.583,36.647-22.676,53.958-36.206c1.352,1.475,2.734,2.932,4.239,4.299c29.054,26.44,75.815,22.367,104.442-9.094
							c28.625-31.459,28.278-78.397-0.777-104.834c-1.505-1.37-3.086-2.607-4.68-3.814c11.84-18.508,22.182-37.601,30.966-57.126
							C1970.664,1250.254,1972.616,1250.755,1974.638,1251.123z"/>
						
							<linearGradient id="SVGID_00000154404188258167092740000011892017778930637445_" gradientUnits="userSpaceOnUse" x1="1335.7289" y1="1699.6814" x2="1911.0002" y2="2484.8501" gradientTransform="matrix(0.9642 0.2652 -0.2652 0.9642 694.0338 -1156.5148)">
							<stop  offset="0" style="stop-color:#FF9085"/>
							<stop  offset="1" style="stop-color:#FB6FBB"/>
						</linearGradient>
						<path style="fill:url(#SVGID_00000154404188258167092740000011892017778930637445_);" d="M1873.962,1438.72
							c29.055,26.437,75.815,22.366,104.442-9.096c28.626-31.46,28.278-78.395-0.777-104.833c-1.505-1.37-3.085-2.608-4.679-3.814
							c11.84-18.508,22.181-37.599,30.966-57.129c1.937,0.528,3.888,1.03,5.91,1.397c39.476,7.165,79.796-19.828,90.062-60.293
							c10.264-40.465-13.417-79.077-52.893-86.242c-2.064-0.373-4.128-0.6-6.192-0.791c1.462-21.051,1.307-42.049-0.464-62.817
							c2.058-0.55,4.116-1.137,6.171-1.87c39.318-14.026,62.398-56.71,51.549-95.335c-10.849-38.625-51.518-58.567-90.836-44.541
							c-2.015,0.719-3.956,1.56-5.883,2.425c-9.061-17.976-19.672-35.242-31.773-51.666c1.576-1.483,3.136-2.995,4.62-4.623
							c28.626-31.461,28.278-78.396-0.776-104.834c-29.055-26.438-75.814-22.366-104.441,9.094c-1.483,1.63-2.842,3.325-4.169,5.033
							c-17.49-10.501-35.679-19.44-54.426-26.768c0.679-2.001,1.332-4.011,1.86-6.086c10.262-40.463-13.417-79.075-52.893-86.24
							c-39.476-7.166-79.797,19.829-90.06,60.292c-0.536,2.115-0.925,4.22-1.28,6.319c-20.843,0.193-41.762,2.015-62.582,5.451
							c-0.384-2.036-0.805-4.071-1.371-6.091c-10.848-38.625-51.517-58.566-90.837-44.539c-39.32,14.028-62.397,56.71-51.548,95.335
							c0.556,1.979,1.239,3.875,1.947,5.754c-18.615,10.584-36.649,22.675-53.96,36.207c-1.351-1.474-2.732-2.932-4.238-4.301
							c-29.055-26.438-75.815-22.366-104.441,9.095c-28.627,31.46-28.279,78.396,0.775,104.834c1.506,1.37,3.086,2.607,4.681,3.815
							c-11.841,18.509-22.182,37.599-30.967,57.127c-1.937-0.526-3.889-1.029-5.909-1.397
							c-39.476-7.163-79.798,19.829-90.063,60.294c-10.264,40.465,13.418,79.074,52.892,86.24c2.062,0.374,4.128,0.602,6.191,0.792
							c-1.462,21.05-1.306,42.049,0.464,62.818c-2.057,0.549-4.116,1.135-6.17,1.87c-39.318,14.025-62.397,56.709-51.549,95.334
							c10.849,38.626,51.518,58.567,90.835,44.541c2.015-0.72,3.956-1.56,5.883-2.426c9.062,17.976,19.672,35.243,31.772,51.667
							c-1.575,1.482-3.136,2.994-4.618,4.624c-28.627,31.46-28.279,78.396,0.775,104.834c29.055,26.437,75.815,22.365,104.441-9.096
							c1.483-1.629,2.841-3.324,4.167-5.033c17.49,10.502,35.681,19.44,54.428,26.769c-0.679,2.001-1.334,4.012-1.861,6.085
							c-10.262,40.463,13.418,79.075,52.893,86.241c39.475,7.165,79.797-19.83,90.06-60.294c0.537-2.114,0.927-4.219,1.28-6.319
							c20.844-0.192,41.764-2.014,62.582-5.451c0.385,2.036,0.806,4.072,1.373,6.089c10.849,38.626,51.517,58.569,90.835,44.541
							c39.32-14.027,62.398-56.709,51.551-95.337c-0.557-1.977-1.241-3.873-1.947-5.752c18.614-10.583,36.646-22.676,53.958-36.206
							C1871.076,1435.893,1872.457,1437.35,1873.962,1438.72z M1451.493,1328.243c-105.491-95.988-106.753-266.4-2.816-380.626
							c103.937-114.226,273.71-129.01,379.202-33.021c105.491,95.988,106.752,266.4,2.818,380.627
							C1726.758,1409.449,1556.986,1424.233,1451.493,1328.243z"/>
					</g>
				</g>
			</g>
			<g>
				<g>
					<defs>
						<path id="SVGID_00000095313657452769952230000003456826344262954426_" d="M1814.324,2872.739
							c-90.127-104.525-59.226-311.755,1.424-440.874c70.81-150.75,153.752-134.525,199.699-256.052
							c85.548-226.265-166.888-375.292-98.714-610.311c55.734-192.127,245.588-165.436,297.626-381.008
							c37.551-155.555-43.255-244.22,34.049-368.846c6.608-10.654,79.526-124.529,192.956-127.107
							c114.485-2.601,203.281,109.7,240.61,191.631c69.001,151.446-27.557,221.713-11.641,431.261
							c21.67,285.292,213.477,323.919,186.013,537.285c-22.678,176.191-158.7,190.49-179.966,386.344
							c-19.746,181.87,90.369,235.629,65.361,356.712C2684.208,2870.323,1998.156,3085.94,1814.324,2872.739z"/>
					</defs>
					
						<linearGradient id="SVGID_00000160873874346295779050000008333621779857160889_" gradientUnits="userSpaceOnUse" x1="1958.7797" y1="886.5703" x2="2298.4016" y2="2081.1011">
						<stop  offset="0.0036" style="stop-color:#E38DDD"/>
						<stop  offset="1" style="stop-color:#9571F6"/>
					</linearGradient>
					
						<use xlink:href="#SVGID_00000095313657452769952230000003456826344262954426_"  style="overflow:visible;fill:url(#SVGID_00000160873874346295779050000008333621779857160889_);"/>
					<clipPath id="SVGID_00000127766483267128948730000016395906504075015322_">
						<use xlink:href="#SVGID_00000095313657452769952230000003456826344262954426_"  style="overflow:visible;"/>
					</clipPath>
					<g style="clip-path:url(#SVGID_00000127766483267128948730000016395906504075015322_);">
						<g style="opacity:0.7;">
							<path style="fill:#FFFFFF;" d="M1940.703,3039.828c-0.859,0-1.648-0.559-1.901-1.423c-0.312-1.051,0.291-2.154,1.34-2.463
								c116.894-34.461,221.445-91.861,310.747-170.606c84.594-74.594,172.061-151.719,195.747-268.591
								c17.911-88.386-11.364-145.712-48.429-218.289c-36.075-70.638-80.968-158.55-91.636-303.509
								c-6.094-82.769-13.677-185.777,39.142-294.233c30.771-63.178,66.16-94.305,97.38-121.767
								c32.723-28.783,58.573-51.517,66.98-101.253c13.718-81.109-16.408-143.15-51.292-214.989
								c-21.536-44.352-43.806-90.213-59.404-146.65c-43.9-158.851,0.526-346.458,132.049-557.607
								c0.575-0.924,1.801-1.219,2.732-0.634c0.928,0.578,1.212,1.802,0.634,2.732c-130.91,210.168-175.184,396.713-131.592,554.453
								c15.501,56.087,37.692,101.782,59.148,145.975c35.185,72.451,65.567,135.021,51.638,217.382
								c-8.646,51.122-36.275,75.427-68.271,103.569c-30.944,27.216-66.014,58.065-96.435,120.526
								c-52.352,107.495-44.811,209.913-38.755,292.206c10.609,144.161,55.301,231.676,91.213,301.996
								c37.418,73.266,66.97,131.137,48.782,220.881c-23.949,118.177-111.922,195.752-197,270.772
								c-89.745,79.137-194.802,136.815-312.256,171.442C1941.077,3039.802,1940.886,3039.828,1940.703,3039.828z"/>
						</g>
						<g style="opacity:0.7;">
							<path style="fill:#FFFFFF;" d="M2326.244,1836.159c-0.637,0-1.26-0.305-1.645-0.869
								c-136.027-200.045-182.011-365.78-196.633-469.588c-15.868-112.635,0.751-178.881,0.921-179.538
								c0.274-1.058,1.354-1.702,2.413-1.423c1.06,0.273,1.7,1.355,1.427,2.417c-0.17,0.649-16.606,66.324-0.796,178.263
								c14.594,103.337,60.436,268.352,195.951,467.639c0.613,0.905,0.381,2.14-0.526,2.754
								C2327.013,1836.047,2326.625,1836.159,2326.244,1836.159z"/>
						</g>
						<g style="opacity:0.7;">
							<path style="fill:#FFFFFF;" d="M2326.109,2193.188c-0.741,0-1.454-0.421-1.793-1.137c-0.468-0.992-0.042-2.173,0.948-2.64
								c116.108-54.751,211.716-125.806,284.163-211.189c57.943-68.292,101.292-145.861,128.846-230.551
								c46.933-144.264,31.477-260.734,31.317-261.894c-0.152-1.084,0.606-2.086,1.689-2.237c1.07-0.165,2.088,0.602,2.237,1.69
								c0.163,1.167,15.747,118.392-31.414,263.49c-27.696,85.213-71.291,163.261-129.573,231.974
								c-72.825,85.859-168.906,157.29-285.575,212.304C2326.681,2193.126,2326.393,2193.188,2326.109,2193.188z"/>
						</g>
						<g style="opacity:0.7;">
							<path style="fill:#FFFFFF;" d="M2346.558,2788.222c-0.339,0-0.682-0.088-0.997-0.274
								c-239.321-140.147-339.71-311.566-381.788-430.688c-45.621-129.163-34.423-226.531-34.302-227.499
								c0.128-1.087,1.129-1.882,2.206-1.728c1.087,0.133,1.863,1.122,1.728,2.209c-0.114,0.961-11.194,97.575,34.184,225.906
								c41.878,118.437,141.796,288.896,379.974,428.379c0.945,0.552,1.264,1.767,0.71,2.713
								C2347.905,2787.871,2347.24,2788.222,2346.558,2788.222z"/>
						</g>
						<g style="opacity:0.7;">
							<path style="fill:#FFFFFF;" d="M2399.218,1169.257c-0.647,0-1.281-0.315-1.662-0.895c-0.599-0.916-0.346-2.145,0.568-2.746
								c184.546-121.293,243.244-281.135,259.992-393.869c18.16-122.245-7.697-217.041-7.96-217.984
								c-0.294-1.054,0.322-2.148,1.378-2.443c1.049-0.294,2.15,0.324,2.444,1.376c0.263,0.951,26.328,96.424,8.085,219.471
								c-16.841,113.584-75.923,274.62-261.757,396.762C2399.969,1169.152,2399.588,1169.257,2399.218,1169.257z"/>
						</g>
					</g>
				</g>
			</g>
			<g>
				<g>
					<defs>
						<path id="SVGID_00000127035417780375349120000004466308434219295674_" d="M2378.833,2852.346
							c-76.205-88.38-50.078-263.601,1.204-372.777c59.872-127.465,130.003-113.747,168.854-216.503
							c72.333-191.316-141.112-317.324-83.466-516.042c47.124-162.452,207.655-139.883,251.654-322.158
							c31.75-131.528-36.574-206.498,28.79-311.874c5.588-9.008,67.243-105.294,163.152-107.475
							c96.801-2.199,171.882,92.757,203.445,162.032c58.344,128.054-23.301,187.467-9.843,364.648
							c18.323,241.226,180.504,273.888,157.282,454.297c-19.175,148.976-134.188,161.067-152.168,326.67
							c-16.696,153.779,76.41,199.234,55.265,301.614C3114.355,2850.304,2534.27,3032.617,2378.833,2852.346z"/>
					</defs>
					
						<linearGradient id="SVGID_00000008853786462754583280000000706273497410130083_" gradientUnits="userSpaceOnUse" x1="2545.8928" y1="1570.4729" x2="2934.3804" y2="2441.6265">
						<stop  offset="0.0036" style="stop-color:#E38DDD"/>
						<stop  offset="1" style="stop-color:#9571F6"/>
					</linearGradient>
					
						<use xlink:href="#SVGID_00000127035417780375349120000004466308434219295674_"  style="overflow:visible;fill:url(#SVGID_00000008853786462754583280000000706273497410130083_);"/>
					<clipPath id="SVGID_00000008119950209932182410000012258799994954100661_">
						<use xlink:href="#SVGID_00000127035417780375349120000004466308434219295674_"  style="overflow:visible;"/>
					</clipPath>
					<g style="clip-path:url(#SVGID_00000008119950209932182410000012258799994954100661_);">
						<g style="opacity:0.7;">
							<path style="fill:#FFFFFF;" d="M2485.691,2993.934c-0.859,0-1.648-0.559-1.901-1.423c-0.312-1.051,0.291-2.154,1.34-2.464
								c98.8-29.129,187.163-77.641,262.633-144.192c71.492-63.04,145.407-128.218,165.416-226.936
								c15.12-74.627-9.612-123.056-40.922-184.369c-30.514-59.752-68.493-134.115-77.516-256.746
								c-5.152-70.023-11.568-157.17,33.128-248.947c26.041-53.473,55.99-79.813,82.412-103.053
								c27.623-24.297,49.439-43.488,56.534-85.435c11.582-68.483-13.871-120.898-43.343-181.593
								c-18.219-37.513-37.055-76.306-50.25-124.054c-37.145-134.4,0.433-293.11,111.69-471.723c0.575-0.924,1.8-1.217,2.732-0.634
								c0.928,0.578,1.212,1.802,0.634,2.732c-110.645,177.632-148.07,335.282-111.233,468.569
								c13.098,47.398,31.854,86.025,49.994,123.377c29.77,61.307,55.481,114.252,43.688,183.987
								c-7.33,43.334-30.732,63.918-57.829,87.751c-26.141,22.994-55.769,49.055-81.463,101.814
								c-44.229,90.814-37.858,177.368-32.74,246.918c8.968,121.832,46.742,195.799,77.094,255.233
								c31.664,62.003,56.676,110.977,41.275,186.961c-20.272,100.024-94.693,165.65-166.666,229.114
								c-75.92,66.944-164.79,115.738-264.147,145.031C2486.065,2993.906,2485.875,2993.934,2485.691,2993.934z"/>
						</g>
						<g style="opacity:0.7;">
							<path style="fill:#FFFFFF;" d="M2811.68,1976.184c-0.637,0-1.26-0.305-1.645-0.869
								c-115.049-169.195-153.942-309.381-166.31-397.188c-13.424-95.297,0.64-151.369,0.786-151.925
								c0.27-1.056,1.343-1.697,2.413-1.423c1.06,0.274,1.7,1.356,1.427,2.417c-0.142,0.549-14.026,56.049-0.661,150.651
								c12.34,87.336,51.091,226.799,165.627,395.238c0.613,0.905,0.381,2.138-0.526,2.754
								C2812.448,1976.071,2812.061,1976.184,2811.68,1976.184z"/>
						</g>
						<g style="opacity:0.7;">
							<path style="fill:#FFFFFF;" d="M2811.569,2278.065c-0.741,0-1.454-0.421-1.793-1.137c-0.468-0.992-0.042-2.173,0.949-2.64
								c222.272-104.814,312.53-260.951,349.104-373.477c39.62-121.896,26.557-220.176,26.422-221.156
								c-0.153-1.084,0.606-2.086,1.689-2.237c1.066-0.152,2.084,0.602,2.237,1.69c0.138,0.987,13.323,100.174-26.574,222.928
								c-23.434,72.091-60.315,138.117-109.62,196.247c-61.603,72.631-142.879,133.055-241.568,179.591
								C2812.14,2278.003,2811.853,2278.065,2811.569,2278.065z"/>
						</g>
						<g style="opacity:0.7;">
							<path style="fill:#FFFFFF;" d="M2828.857,2781.19c-0.339,0-0.682-0.088-0.997-0.273
								c-202.433-118.547-287.355-263.554-322.948-364.326c-38.599-109.281-29.119-191.68-29.018-192.499
								c0.128-1.087,1.129-1.88,2.206-1.728c1.087,0.133,1.863,1.122,1.731,2.209c-0.1,0.812-9.459,82.459,28.894,190.906
								c35.396,100.084,119.844,244.134,321.138,362.017c0.945,0.552,1.264,1.768,0.71,2.713
								C2830.204,2780.839,2829.539,2781.19,2828.857,2781.19z"/>
						</g>
						<g style="opacity:0.7;">
							<path style="fill:#FFFFFF;" d="M2873.383,1412.29c-0.647,0-1.281-0.315-1.662-0.895c-0.599-0.916-0.346-2.145,0.568-2.746
								c155.936-102.489,205.542-237.545,219.7-332.796c15.349-103.304-6.496-183.415-6.721-184.214
								c-0.294-1.054,0.322-2.148,1.378-2.443c1.049-0.294,2.15,0.324,2.444,1.376c0.222,0.803,22.281,81.593,6.845,185.699
								c-14.251,96.102-64.238,232.353-221.465,335.69C2874.135,1412.185,2873.754,1412.29,2873.383,1412.29z"/>
						</g>
					</g>
				</g>
			</g>
			<g>
				
					<linearGradient id="SVGID_00000000932954932193542500000018412526924933326775_" gradientUnits="userSpaceOnUse" x1="2002.0308" y1="2071.0798" x2="1168.6438" y2="2318.0952">
					<stop  offset="0" style="stop-color:#D8DEE8"/>
					<stop  offset="1" style="stop-color:#A2A7AE"/>
				</linearGradient>
				<path style="opacity:0.54;fill:url(#SVGID_00000000932954932193542500000018412526924933326775_);" d="M532.494,3172.953
					c-52.421,3.408-95.297-33.061-95.297-81.314V1405.586c0-48.253,42.876-85.847,95.297-83.813l2247.15,121.495
					c39.77,1.543,82.4,2.838,82.4,44.565v1458.009c0,41.727-32.206,77.767-71.977,80.352L532.494,3172.953z"/>
				
					<linearGradient id="SVGID_00000005242964845773867550000000153698298046371219_" gradientUnits="userSpaceOnUse" x1="2568.7993" y1="768.439" x2="883.0972" y2="3402.353">
					<stop  offset="0" style="stop-color:#FFFFFF"/>
					<stop  offset="0.9964" style="stop-color:#EBEFF2"/>
				</linearGradient>
				<path style="fill:url(#SVGID_00000005242964845773867550000000153698298046371219_);" d="M550.805,3172.953
					c-52.421,3.408-95.297-33.061-95.297-81.314V1405.586c0-48.253,42.876-85.847,95.297-83.813l2257.574,87.593
					c39.77,1.543,71.976,36.74,71.976,78.467v1458.009c0,41.727-32.206,77.767-71.976,80.352L550.805,3172.953z"/>
				
					<linearGradient id="SVGID_00000122696455509628119650000000182055562497003446_" gradientUnits="userSpaceOnUse" x1="2755.1968" y1="964.6746" x2="168.6874" y2="3872.825">
					<stop  offset="0" style="stop-color:#444B8C"/>
					<stop  offset="0.9964" style="stop-color:#26264F"/>
				</linearGradient>
				<path style="fill:url(#SVGID_00000122696455509628119650000000182055562497003446_);" d="M2808.379,1459.669l-2257.574-80.302
					c-17.73-0.631-32.128,12.066-32.128,28.361V3087.84c0,16.294,14.399,28.614,32.128,27.519l2257.574-139.468
					c13.5-0.834,24.427-13.007,24.427-27.191V1486.22C2832.806,1472.036,2821.879,1460.149,2808.379,1459.669z"/>
				<g style="opacity:0.53;">
					<g>
						<path style="fill:#FFFFFF;" d="M1346.852,2947.778c-7.832,0-14.182-6.35-14.182-14.182V1540.266
							c0-7.832,6.35-14.182,14.182-14.182c7.832,0,14.182,6.35,14.182,14.182v1393.331
							C1361.034,2941.428,1354.684,2947.778,1346.852,2947.778z"/>
					</g>
					<g>
						<path style="fill:#FFFFFF;" d="M2145.711,2904.646c-7.832,0-14.182-6.35-14.182-14.182v-1328
							c0-7.832,6.35-14.182,14.182-14.182c7.832,0,14.182,6.35,14.182,14.182v1328
							C2159.893,2898.295,2153.543,2904.646,2145.711,2904.646z"/>
					</g>
				</g>
			</g>
			<g>
				
					<linearGradient id="SVGID_00000121970563878396676070000009051672143614598308_" gradientUnits="userSpaceOnUse" x1="1727.6122" y1="2179.606" x2="1939.319" y2="3684.2439">
					<stop  offset="0" style="stop-color:#444B8C"/>
					<stop  offset="0.9964" style="stop-color:#26264F"/>
				</linearGradient>
				<path style="opacity:0.3;fill:url(#SVGID_00000121970563878396676070000009051672143614598308_);" d="M1432.724,1653.533
					v658.574c0,15.383,13.434,27.314,28.709,25.498l560.783-66.675c18.681-2.221,31.114-20.388,26.397-38.598
					c-15.628-60.337-45.54-187.314-45.676-275.75c-0.004-2.325-1.259-4.446-3.302-5.557L1442.1,1647.958
					C1437.872,1645.66,1432.724,1648.721,1432.724,1653.533z"/>
				
					<linearGradient id="SVGID_00000057845491387453963440000015550094847606255291_" gradientUnits="userSpaceOnUse" x1="1882.6222" y1="1606.8303" x2="1839.3877" y2="3128.6653">
					<stop  offset="0" style="stop-color:#FFC444"/>
					<stop  offset="0.9964" style="stop-color:#F36F56"/>
				</linearGradient>
				<path style="fill:url(#SVGID_00000057845491387453963440000015550094847606255291_);" d="M1443.743,1641.733l677.414-69.432
					c5.314-0.545,10.129,3.133,10.974,8.407c8.989,56.096,60.663,351.031,180.824,539.851c3.766,5.918,0.471,13.76-6.388,15.23
					l-606.113,129.899c-3.057,0.655-6.227-0.135-8.615-2.153c-25.277-21.351-166.295-157.802-256.955-609.796
					C1433.716,1647.915,1437.833,1642.339,1443.743,1641.733z"/>
				<g>
					
						<linearGradient id="SVGID_00000131355969508627694340000015859385917218811562_" gradientUnits="userSpaceOnUse" x1="1902.9358" y1="2072.491" x2="2058.8389" y2="3180.521">
						<stop  offset="0" style="stop-color:#FFFFFF"/>
						<stop  offset="0.9964" style="stop-color:#EBEFF2"/>
					</linearGradient>
					<path style="opacity:0.19;fill:url(#SVGID_00000131355969508627694340000015859385917218811562_);" d="M2096.901,1945.6
						c-76.483-19.164-96.172-98.853-166.184-98.266c-69.246,0.581-84.202,78.823-145.953,75.144
						c-70.241-4.184-83.912-107.384-174.855-131.502c-31.347-8.313-61.863-4.571-88.034,3.214
						c51.061,239.499,168.6,405.976,168.6,405.976l556.233-114.394c-26.442-41.697-49.533-92.236-69.205-144.043
						C2144.198,1951.879,2117.707,1950.814,2096.901,1945.6z"/>
				</g>
				<g>
					<path style="fill:#FFFFFF;" d="M1505.846,1712.676c-7.216,0-13.389-5.486-14.099-12.818
						c-0.755-7.797,4.955-14.727,12.752-15.482l575.143-55.63c7.808-0.746,14.726,4.955,15.48,12.75
						c0.755,7.797-4.955,14.727-12.752,15.482l-575.143,55.63C1506.763,1712.653,1506.303,1712.676,1505.846,1712.676z"/>
				</g>
				<g>
					<path style="fill:#FFFFFF;" d="M1722.699,1747.357c-7.139,0-13.282-5.375-14.082-12.636
						c-0.852-7.785,4.764-14.79,12.551-15.645l368.403-40.462c7.825-0.852,14.791,4.764,15.646,12.549
						c0.852,7.785-4.764,14.79-12.551,15.645l-368.403,40.462C1723.738,1747.328,1723.215,1747.357,1722.699,1747.357z"/>
				</g>
			</g>
			<g>
				
					<linearGradient id="SVGID_00000163775755037001348400000011248584811350128266_" gradientUnits="userSpaceOnUse" x1="990.7546" y1="2309.3757" x2="807.8489" y2="2759.3247">
					<stop  offset="0" style="stop-color:#444B8C"/>
					<stop  offset="0.9964" style="stop-color:#26264F"/>
				</linearGradient>
				<path style="opacity:0.3;fill:url(#SVGID_00000163775755037001348400000011248584811350128266_);" d="M585.961,2226.463v553.862
					c0,18.805,15.245,34.05,34.05,34.05h581.033c18.806,0,34.05-15.245,34.05-34.05v-351.892L585.961,2226.463z"/>
				
					<linearGradient id="SVGID_00000009551551915837001630000013092853222434546338_" gradientUnits="userSpaceOnUse" x1="1118.283" y1="2159.4163" x2="897.5466" y2="2702.4287">
					<stop  offset="0" style="stop-color:#FF9085"/>
					<stop  offset="1" style="stop-color:#FB6FBB"/>
				</linearGradient>
				<path style="fill:url(#SVGID_00000009551551915837001630000013092853222434546338_);" d="M1376.071,2767.724H659.986
					c-47.126-102.291-83.684-309.859-74.025-541.26l722.62,34.124C1292.89,2476.348,1320.576,2678.521,1376.071,2767.724z"/>
				<g>
					<path style="fill:#FFFFFF;" d="M1270.449,2329.872c-0.61-8.518-7.504-15.229-16.035-15.611l-618.955-27.714
						c-9.581-0.429-17.584,7.224-17.584,16.814v3.594c0,9.04,7.142,16.466,16.176,16.818l618.955,24.12
						C1263.029,2348.284,1271.167,2339.877,1270.449,2329.872z"/>
					<path style="fill:#FFFFFF;" d="M991.637,2368.462l-355.283-12.043c-10.103-0.343-18.479,7.755-18.479,17.863v2.095
						c0,9.677,7.701,17.596,17.373,17.866l355.283,9.948c10.364,0.29,18.8-8.27,18.357-18.629
						C1008.491,2376.231,1000.973,2368.779,991.637,2368.462z"/>
					<g style="opacity:0.19;">
						
							<linearGradient id="SVGID_00000142865187720381604390000005617547837299147392_" gradientUnits="userSpaceOnUse" x1="689.6117" y1="2585.2129" x2="742.8186" y2="2585.2129">
							<stop  offset="0" style="stop-color:#FFFFFF"/>
							<stop  offset="0.9964" style="stop-color:#EBEFF2"/>
						</linearGradient>
						<polygon style="fill:url(#SVGID_00000142865187720381604390000005617547837299147392_);" points="742.819,2681.705 
							707.498,2681.626 689.612,2488.721 724.363,2489.258 						"/>
						
							<linearGradient id="SVGID_00000026841988107995314060000012395468803086345916_" gradientUnits="userSpaceOnUse" x1="760.6419" y1="2633.3618" x2="805.1893" y2="2633.3618">
							<stop  offset="0" style="stop-color:#FFFFFF"/>
							<stop  offset="0.9964" style="stop-color:#EBEFF2"/>
						</linearGradient>
						<polygon style="fill:url(#SVGID_00000026841988107995314060000012395468803086345916_);" points="805.189,2681.842 
							770.172,2681.765 760.642,2584.881 795.377,2585.19 						"/>
						
							<linearGradient id="SVGID_00000069392635933390997640000012668509417048737962_" gradientUnits="userSpaceOnUse" x1="810.5731" y1="2577.4089" x2="867.0256" y2="2577.4089">
							<stop  offset="0" style="stop-color:#FFFFFF"/>
							<stop  offset="0.9964" style="stop-color:#EBEFF2"/>
						</linearGradient>
						<polygon style="fill:url(#SVGID_00000069392635933390997640000012668509417048737962_);" points="867.026,2681.979 
							832.308,2681.902 810.573,2472.838 844.689,2473.408 						"/>
						
							<linearGradient id="SVGID_00000093143393812446941680000012909528920246739374_" gradientUnits="userSpaceOnUse" x1="874.4414" y1="2593.1758" x2="928.3351" y2="2593.1758">
							<stop  offset="0" style="stop-color:#FFFFFF"/>
							<stop  offset="0.9964" style="stop-color:#EBEFF2"/>
						</linearGradient>
						<polygon style="fill:url(#SVGID_00000093143393812446941680000012909528920246739374_);" points="928.335,2682.115 
							893.913,2682.039 874.441,2504.237 908.359,2504.732 						"/>
						
							<linearGradient id="SVGID_00000043419642114325134550000010722195012419020420_" gradientUnits="userSpaceOnUse" x1="949.468" y1="2658.1929" x2="989.1226" y2="2658.1929">
							<stop  offset="0" style="stop-color:#FFFFFF"/>
							<stop  offset="0.9964" style="stop-color:#EBEFF2"/>
						</linearGradient>
						<polygon style="fill:url(#SVGID_00000043419642114325134550000010722195012419020420_);" points="989.123,2682.249 
							954.993,2682.174 949.468,2634.137 983.463,2634.326 						"/>
						
							<linearGradient id="SVGID_00000051353371954683038250000012673738339085541785_" gradientUnits="userSpaceOnUse" x1="1002.0885" y1="2626.4539" x2="1049.3969" y2="2626.4539">
							<stop  offset="0" style="stop-color:#FFFFFF"/>
							<stop  offset="0.9964" style="stop-color:#EBEFF2"/>
						</linearGradient>
						<polygon style="fill:url(#SVGID_00000051353371954683038250000012673738339085541785_);" points="1049.397,2682.382 
							1015.555,2682.308 1002.089,2570.525 1035.621,2570.863 						"/>
						
							<linearGradient id="SVGID_00000178895749061553202940000002822351995584856461_" gradientUnits="userSpaceOnUse" x1="1055.4993" y1="2602.6138" x2="1109.1633" y2="2602.6138">
							<stop  offset="0" style="stop-color:#FFFFFF"/>
							<stop  offset="0.9964" style="stop-color:#EBEFF2"/>
						</linearGradient>
						<polygon style="fill:url(#SVGID_00000178895749061553202940000002822351995584856461_);" points="1109.163,2682.514 
							1075.607,2682.44 1055.499,2522.713 1088.621,2523.16 						"/>
						
							<linearGradient id="SVGID_00000178906764701554021960000011367453311520198840_" gradientUnits="userSpaceOnUse" x1="1119.8679" y1="2624.3818" x2="1168.4274" y2="2624.3818">
							<stop  offset="0" style="stop-color:#FFFFFF"/>
							<stop  offset="0.9964" style="stop-color:#EBEFF2"/>
						</linearGradient>
						<polygon style="fill:url(#SVGID_00000178906764701554021960000011367453311520198840_);" points="1168.427,2682.646 
							1135.152,2682.572 1119.868,2566.118 1152.83,2566.462 						"/>
						
							<linearGradient id="SVGID_00000139279029835593568970000006386787859604522656_" gradientUnits="userSpaceOnUse" x1="1169.7732" y1="2593.3086" x2="1227.1975" y2="2593.3086">
							<stop  offset="0" style="stop-color:#FFFFFF"/>
							<stop  offset="0.9964" style="stop-color:#EBEFF2"/>
						</linearGradient>
						<polygon style="fill:url(#SVGID_00000139279029835593568970000006386787859604522656_);" points="1227.198,2682.776 
							1194.2,2682.703 1169.773,2503.841 1202.296,2504.327 						"/>
						
							<linearGradient id="SVGID_00000065796468332131729360000011596995053716166808_" gradientUnits="userSpaceOnUse" x1="1224.7214" y1="2584.0476" x2="1285.4788" y2="2584.0476">
							<stop  offset="0" style="stop-color:#FFFFFF"/>
							<stop  offset="0.9964" style="stop-color:#EBEFF2"/>
						</linearGradient>
						<polygon style="fill:url(#SVGID_00000065796468332131729360000011596995053716166808_);" points="1285.479,2682.904 
							1252.756,2682.832 1224.721,2485.191 1256.928,2485.716 						"/>
					</g>
					<polygon style="fill:#FFFFFF;" points="1289.945,2713.75 710.476,2713.75 708.527,2692.725 1287.022,2693.563 					"/>
				</g>
			</g>
			<g>
				
					<linearGradient id="SVGID_00000044858485134807940620000001866201518686728862_" gradientUnits="userSpaceOnUse" x1="871.5695" y1="1614.5132" x2="1156.5251" y2="2294.2883">
					<stop  offset="0" style="stop-color:#444B8C"/>
					<stop  offset="0.9964" style="stop-color:#26264F"/>
				</linearGradient>
				<path style="opacity:0.3;fill:url(#SVGID_00000044858485134807940620000001866201518686728862_);" d="M636.582,1580.125v322.48
					c0,48.17,6.412,96.126,19.067,142.605l4.84,17.774c1.797,6.6,7.791,11.18,14.631,11.18h614.568
					c8.341,0,14.524-7.731,12.698-15.87c-7.369-32.859-23.288-108.948-23.288-153.044l-35.301-279.11
					c0-13.618,24.478-42.664,10.866-43.073l-602.462-18.098C643.651,1564.711,636.582,1571.572,636.582,1580.125z"/>
				
					<linearGradient id="SVGID_00000016055691926630433770000013370959540360913333_" gradientUnits="userSpaceOnUse" x1="877.1271" y1="1549.325" x2="1162.0828" y2="2229.1001">
					<stop  offset="0" style="stop-color:#AA80F9"/>
					<stop  offset="0.9964" style="stop-color:#6165D7"/>
				</linearGradient>
				<path style="fill:url(#SVGID_00000016055691926630433770000013370959540360913333_);" d="M636.582,1517.266v322.48
					c0,48.17,6.412,96.126,19.067,142.605l4.84,17.774c1.797,6.6,7.791,11.18,14.631,11.18h614.568
					c8.341,0,14.524-7.731,12.698-15.87c-7.369-32.859-23.288-108.948-23.288-153.044v-297.003
					c0-13.619-10.823-24.771-24.435-25.181l-602.462-18.098C643.651,1501.853,636.582,1508.713,636.582,1517.266z"/>
				<path style="fill:#FFFFFF;" d="M1222.438,1622.956c-0.078,0-0.156-0.001-0.234-0.003l-527.971-13.271
					c-5.055-0.127-9.049-4.328-8.922-9.382c0.127-5.055,4.363-9.082,9.382-8.922l527.971,13.27c5.055,0.126,9.049,4.328,8.922,9.382
					C1231.462,1619.008,1227.389,1622.956,1222.438,1622.956z"/>
				<g style="opacity:0.19;">
					
						<linearGradient id="SVGID_00000026138434540319722090000006815100965287623302_" gradientUnits="userSpaceOnUse" x1="855.9945" y1="1683.1746" x2="921.4876" y2="1683.1746">
						<stop  offset="0" style="stop-color:#FFFFFF"/>
						<stop  offset="0.9964" style="stop-color:#EBEFF2"/>
					</linearGradient>
					<polygon style="fill:url(#SVGID_00000026138434540319722090000006815100965287623302_);" points="921.488,1706.85 
						855.995,1704.938 855.995,1659.499 921.488,1661.837 					"/>
					
						<linearGradient id="SVGID_00000029020258210011144190000004083754853941239230_" gradientUnits="userSpaceOnUse" x1="936.9003" y1="1685.7778" x2="1000.8919" y2="1685.7778">
						<stop  offset="0" style="stop-color:#FFFFFF"/>
						<stop  offset="0.9964" style="stop-color:#EBEFF2"/>
					</linearGradient>
					<polygon style="fill:url(#SVGID_00000029020258210011144190000004083754853941239230_);" points="1000.892,1709.168 
						936.9,1707.3 936.9,1662.387 1000.892,1664.672 					"/>
					
						<linearGradient id="SVGID_00000018231737467699737350000005640861523980138129_" gradientUnits="userSpaceOnUse" x1="1015.9539" y1="1688.3217" x2="1078.4954" y2="1688.3217">
						<stop  offset="0" style="stop-color:#FFFFFF"/>
						<stop  offset="0.9964" style="stop-color:#EBEFF2"/>
					</linearGradient>
					<polygon style="fill:url(#SVGID_00000018231737467699737350000005640861523980138129_);" points="1078.495,1711.434 
						1015.954,1709.608 1015.954,1665.209 1078.495,1667.442 					"/>
					
						<linearGradient id="SVGID_00000062169469440036161050000014080472871570694033_" gradientUnits="userSpaceOnUse" x1="1093.2178" y1="1690.8079" x2="1154.3582" y2="1690.8079">
						<stop  offset="0" style="stop-color:#FFFFFF"/>
						<stop  offset="0.9964" style="stop-color:#EBEFF2"/>
					</linearGradient>
					<polygon style="fill:url(#SVGID_00000062169469440036161050000014080472871570694033_);" points="1154.358,1713.648 
						1093.218,1711.864 1093.218,1667.967 1154.358,1670.15 					"/>
					
						<linearGradient id="SVGID_00000120528176914308625380000011695069778357760183_" gradientUnits="userSpaceOnUse" x1="1168.7524" y1="1693.239" x2="1228.5381" y2="1693.239">
						<stop  offset="0" style="stop-color:#FFFFFF"/>
						<stop  offset="0.9964" style="stop-color:#EBEFF2"/>
					</linearGradient>
					<polygon style="fill:url(#SVGID_00000120528176914308625380000011695069778357760183_);" points="1228.538,1715.814 
						1168.752,1714.069 1168.752,1670.664 1228.538,1672.798 					"/>
					
						<linearGradient id="SVGID_00000150795249140619012460000010607831343689120426_" gradientUnits="userSpaceOnUse" x1="688.3598" y1="1747.0697" x2="757.0173" y2="1747.0697">
						<stop  offset="0" style="stop-color:#FFFFFF"/>
						<stop  offset="0.9964" style="stop-color:#EBEFF2"/>
					</linearGradient>
					<polygon style="fill:url(#SVGID_00000150795249140619012460000010607831343689120426_);" points="757.017,1771.002 
						688.36,1769.667 688.36,1723.137 757.017,1724.92 					"/>
					
						<linearGradient id="SVGID_00000163038759811103658100000011745801801459753098_" gradientUnits="userSpaceOnUse" x1="773.1706" y1="1748.9808" x2="840.2181" y2="1748.9808">
						<stop  offset="0" style="stop-color:#FFFFFF"/>
						<stop  offset="0.9964" style="stop-color:#EBEFF2"/>
					</linearGradient>
					<polygon style="fill:url(#SVGID_00000163038759811103658100000011745801801459753098_);" points="840.218,1772.622 
						773.171,1771.317 773.171,1725.34 840.218,1727.08 					"/>
					
						<linearGradient id="SVGID_00000010309896235912855680000006120297545942826163_" gradientUnits="userSpaceOnUse" x1="855.9945" y1="1750.8468" x2="921.4876" y2="1750.8468">
						<stop  offset="0" style="stop-color:#FFFFFF"/>
						<stop  offset="0.9964" style="stop-color:#EBEFF2"/>
					</linearGradient>
					<polygon style="fill:url(#SVGID_00000010309896235912855680000006120297545942826163_);" points="921.488,1774.204 
						855.995,1772.929 855.995,1727.49 921.488,1729.191 					"/>
					
						<linearGradient id="SVGID_00000160899273541628145060000006459992954991275695_" gradientUnits="userSpaceOnUse" x1="936.9003" y1="1752.6698" x2="1000.8919" y2="1752.6698">
						<stop  offset="0" style="stop-color:#FFFFFF"/>
						<stop  offset="0.9964" style="stop-color:#EBEFF2"/>
					</linearGradient>
					<polygon style="fill:url(#SVGID_00000160899273541628145060000006459992954991275695_);" points="1000.892,1775.749 
						936.9,1774.504 936.9,1729.591 1000.892,1731.252 					"/>
					
						<linearGradient id="SVGID_00000052102819589817213770000017363970081679118494_" gradientUnits="userSpaceOnUse" x1="1015.9539" y1="1754.4515" x2="1078.4954" y2="1754.4515">
						<stop  offset="0" style="stop-color:#FFFFFF"/>
						<stop  offset="0.9964" style="stop-color:#EBEFF2"/>
					</linearGradient>
					<polygon style="fill:url(#SVGID_00000052102819589817213770000017363970081679118494_);" points="1078.495,1777.26 
						1015.954,1776.042 1015.954,1731.644 1078.495,1733.267 					"/>
					
						<linearGradient id="SVGID_00000078744980974892075560000017015498464169201560_" gradientUnits="userSpaceOnUse" x1="1093.2178" y1="1756.1929" x2="1154.3582" y2="1756.1929">
						<stop  offset="0" style="stop-color:#FFFFFF"/>
						<stop  offset="0.9964" style="stop-color:#EBEFF2"/>
					</linearGradient>
					<polygon style="fill:url(#SVGID_00000078744980974892075560000017015498464169201560_);" points="1154.358,1778.736 
						1093.218,1777.546 1093.218,1733.65 1154.358,1735.237 					"/>
					
						<linearGradient id="SVGID_00000031197929790317147320000016108943533983537053_" gradientUnits="userSpaceOnUse" x1="1168.7524" y1="1757.8955" x2="1228.5381" y2="1757.8955">
						<stop  offset="0" style="stop-color:#FFFFFF"/>
						<stop  offset="0.9964" style="stop-color:#EBEFF2"/>
					</linearGradient>
					<polygon style="fill:url(#SVGID_00000031197929790317147320000016108943533983537053_);" points="1228.538,1780.18 
						1168.752,1779.016 1168.752,1735.611 1228.538,1737.163 					"/>
					
						<linearGradient id="SVGID_00000096060688739097944370000014427345561775089053_" gradientUnits="userSpaceOnUse" x1="688.3598" y1="1816.358" x2="757.0173" y2="1816.358">
						<stop  offset="0" style="stop-color:#FFFFFF"/>
						<stop  offset="0.9964" style="stop-color:#EBEFF2"/>
					</linearGradient>
					<polygon style="fill:url(#SVGID_00000096060688739097944370000014427345561775089053_);" points="757.017,1839.957 
						688.36,1839.288 688.36,1792.759 757.017,1793.874 					"/>
					
						<linearGradient id="SVGID_00000087371779743533524440000010937882648888009919_" gradientUnits="userSpaceOnUse" x1="773.1706" y1="1817.451" x2="840.2181" y2="1817.451">
						<stop  offset="0" style="stop-color:#FFFFFF"/>
						<stop  offset="0.9964" style="stop-color:#EBEFF2"/>
					</linearGradient>
					<polygon style="fill:url(#SVGID_00000087371779743533524440000010937882648888009919_);" points="840.218,1840.766 
						773.171,1840.114 773.171,1794.136 840.218,1795.225 					"/>
					
						<linearGradient id="SVGID_00000134250724569368114600000016266522167855653537_" gradientUnits="userSpaceOnUse" x1="855.9945" y1="1818.519" x2="921.4876" y2="1818.519">
						<stop  offset="0" style="stop-color:#FFFFFF"/>
						<stop  offset="0.9964" style="stop-color:#EBEFF2"/>
					</linearGradient>
					<polygon style="fill:url(#SVGID_00000134250724569368114600000016266522167855653537_);" points="921.488,1841.557 
						855.995,1840.92 855.995,1795.481 921.488,1796.544 					"/>
					
						<linearGradient id="SVGID_00000032645758477906286300000013848172552306871487_" gradientUnits="userSpaceOnUse" x1="936.9003" y1="1819.5621" x2="1000.8919" y2="1819.5621">
						<stop  offset="0" style="stop-color:#FFFFFF"/>
						<stop  offset="0.9964" style="stop-color:#EBEFF2"/>
					</linearGradient>
					<polygon style="fill:url(#SVGID_00000032645758477906286300000013848172552306871487_);" points="1000.892,1842.33 
						936.9,1841.707 936.9,1796.795 1000.892,1797.833 					"/>
					
						<linearGradient id="SVGID_00000135677405036130692230000010945592242987165334_" gradientUnits="userSpaceOnUse" x1="1015.9539" y1="1820.5813" x2="1078.4954" y2="1820.5813">
						<stop  offset="0" style="stop-color:#FFFFFF"/>
						<stop  offset="0.9964" style="stop-color:#EBEFF2"/>
					</linearGradient>
					<polygon style="fill:url(#SVGID_00000135677405036130692230000010945592242987165334_);" points="1078.495,1843.085 
						1015.954,1842.476 1015.954,1798.078 1078.495,1799.093 					"/>
					
						<linearGradient id="SVGID_00000174575609718381229800000006912504179279295628_" gradientUnits="userSpaceOnUse" x1="1093.2178" y1="1821.5775" x2="1154.3582" y2="1821.5775">
						<stop  offset="0" style="stop-color:#FFFFFF"/>
						<stop  offset="0.9964" style="stop-color:#EBEFF2"/>
					</linearGradient>
					<polygon style="fill:url(#SVGID_00000174575609718381229800000006912504179279295628_);" points="1154.358,1843.823 
						1093.218,1843.228 1093.218,1799.332 1154.358,1800.325 					"/>
					
						<linearGradient id="SVGID_00000004504121031570339900000003972328859403339955_" gradientUnits="userSpaceOnUse" x1="1168.7524" y1="1822.5516" x2="1228.5381" y2="1822.5516">
						<stop  offset="0" style="stop-color:#FFFFFF"/>
						<stop  offset="0.9964" style="stop-color:#EBEFF2"/>
					</linearGradient>
					<polygon style="fill:url(#SVGID_00000004504121031570339900000003972328859403339955_);" points="1228.538,1844.545 
						1168.752,1843.963 1168.752,1800.558 1228.538,1801.529 					"/>
					
						<linearGradient id="SVGID_00000096032562834243510100000003406353108514554539_" gradientUnits="userSpaceOnUse" x1="688.3598" y1="1885.646" x2="757.0173" y2="1885.646">
						<stop  offset="0" style="stop-color:#FFFFFF"/>
						<stop  offset="0.9964" style="stop-color:#EBEFF2"/>
					</linearGradient>
					<polygon style="fill:url(#SVGID_00000096032562834243510100000003406353108514554539_);" points="757.017,1908.911 
						688.36,1908.911 688.36,1862.381 757.017,1862.828 					"/>
					
						<linearGradient id="SVGID_00000173846751705439891400000006179322536652004781_" gradientUnits="userSpaceOnUse" x1="773.1706" y1="1885.9218" x2="840.2181" y2="1885.9218">
						<stop  offset="0" style="stop-color:#FFFFFF"/>
						<stop  offset="0.9964" style="stop-color:#EBEFF2"/>
					</linearGradient>
					<polygon style="fill:url(#SVGID_00000173846751705439891400000006179322536652004781_);" points="840.218,1908.911 
						773.171,1908.911 773.171,1862.933 840.218,1863.369 					"/>
					
						<linearGradient id="SVGID_00000095308337599903925590000016957824482743251333_" gradientUnits="userSpaceOnUse" x1="855.9945" y1="1886.191" x2="921.4876" y2="1886.191">
						<stop  offset="0" style="stop-color:#FFFFFF"/>
						<stop  offset="0.9964" style="stop-color:#EBEFF2"/>
					</linearGradient>
					<polygon style="fill:url(#SVGID_00000095308337599903925590000016957824482743251333_);" points="921.488,1908.911 
						855.995,1908.911 855.995,1863.472 921.488,1863.898 					"/>
					
						<linearGradient id="SVGID_00000018209214094498080040000002926197021068598433_" gradientUnits="userSpaceOnUse" x1="936.9003" y1="1886.4541" x2="1000.8919" y2="1886.4541">
						<stop  offset="0" style="stop-color:#FFFFFF"/>
						<stop  offset="0.9964" style="stop-color:#EBEFF2"/>
					</linearGradient>
					<polygon style="fill:url(#SVGID_00000018209214094498080040000002926197021068598433_);" points="1000.892,1908.911 
						936.9,1908.911 936.9,1863.998 1000.892,1864.414 					"/>
					
						<linearGradient id="SVGID_00000067944001933834825960000010477873883105982629_" gradientUnits="userSpaceOnUse" x1="1015.9539" y1="1886.7112" x2="1078.4954" y2="1886.7112">
						<stop  offset="0" style="stop-color:#FFFFFF"/>
						<stop  offset="0.9964" style="stop-color:#EBEFF2"/>
					</linearGradient>
					<polygon style="fill:url(#SVGID_00000067944001933834825960000010477873883105982629_);" points="1078.495,1908.911 
						1015.954,1908.911 1015.954,1864.512 1078.495,1864.919 					"/>
				</g>
			</g>
			<g>
				
					<linearGradient id="SVGID_00000167377497530005798110000008820803174509809026_" gradientUnits="userSpaceOnUse" x1="2621.8259" y1="1846.3164" x2="2997.2039" y2="1686.0941">
					<stop  offset="0.0036" style="stop-color:#E38DDD"/>
					<stop  offset="1" style="stop-color:#9571F6"/>
				</linearGradient>
				<path style="fill:url(#SVGID_00000167377497530005798110000008820803174509809026_);" d="M2238.074,1666.155
					c1.131,201.368,11.291,381.981,79.214,429.813l534.015-3.64c-35.805-128.491-80.632-263.521-71.345-409.152L2238.074,1666.155z"
					/>
			</g>
		</g>
		<g>
			
				<linearGradient id="SVGID_00000003102929280903443540000000353111955914858129_" gradientUnits="userSpaceOnUse" x1="1938.2207" y1="1892.5269" x2="1977.5885" y2="1892.5269">
				<stop  offset="0.0036" style="stop-color:#F36F56"/>
				<stop  offset="1" style="stop-color:#FFC444"/>
			</linearGradient>
			<path style="fill:url(#SVGID_00000003102929280903443540000000353111955914858129_);" d="M1967.379,1950.618
				c0,0-16.166-8.062-24.719-21.177c-8.554-13.115-4.099-32.69,7.827-46.803c11.926-14.112,17.517-48.203,17.517-48.203
				s14.207,30.899,8.027,43.259c-6.179,12.36-18.126,37.498-18.126,37.498l19.684,21.555L1967.379,1950.618z"/>
			<path style="fill:#FFFFFF;" d="M1968.004,1918.698l-17.517,25.74c0,0,43.976,129.736,185.138,174.459
				s194.952-70.32,194.952-70.32S2125.599,2036.332,1968.004,1918.698z"/>
			<path style="opacity:0.5;fill:#D8DEE8;" d="M1982.226,1949.216c-12.919-3.809-24.203-4.659-31.739-4.777
				c0,0,43.975,129.736,185.138,174.459c141.162,44.722,194.953-70.32,194.953-70.32c-27.936-9.034-70.188-19.709-122.189-20.827
				c-74.655-1.604-93.379,18.126-128.535-0.501C2039.801,2006.028,2034.036,1964.49,1982.226,1949.216z"/>
			
				<linearGradient id="SVGID_00000110439954656552584930000015297917642765614213_" gradientUnits="userSpaceOnUse" x1="1688.1772" y1="1843.1598" x2="2080.9585" y2="1843.1598">
				<stop  offset="0" style="stop-color:#AB316D"/>
				<stop  offset="1" style="stop-color:#792D3D"/>
			</linearGradient>
			<path style="fill:url(#SVGID_00000110439954656552584930000015297917642765614213_);" d="M1690.429,1784.22l99.928,264.096
				c10.306,27.238,47.541,30.466,62.381,5.407l223.367-377.175c9.53-16.093,4.609-36.842-11.132-46.941l-13.322-8.547
				c-16.5-10.586-38.487-5.429-48.56,11.389l-167.103,278.995c-4.86,8.113-16.907,7.155-20.423-1.625l-60.396-150.809
				c-8.057-20.119-32.369-28.03-50.723-16.504l0,0C1690.44,1751.302,1684.576,1768.752,1690.429,1784.22z"/>
			
				<linearGradient id="SVGID_00000148663429035564773780000001141764766297399446_" gradientUnits="userSpaceOnUse" x1="1352.0074" y1="2449.8945" x2="1208.8187" y2="2216.6357" gradientTransform="matrix(0.9867 -0.1625 0.1625 0.9867 178.4144 -79.8782)">
				<stop  offset="0.0036" style="stop-color:#F36F56"/>
				<stop  offset="1" style="stop-color:#FFC444"/>
			</linearGradient>
			<path style="fill:url(#SVGID_00000148663429035564773780000001141764766297399446_);" d="M1819.391,1989.186
				c0,0-13.392,3.627-19.742-22.195c-4.977-20.242-10.03-25.608-13.067-20.35c-3.038,5.259,0.993,16.464,0.993,16.464
				s-22.218-6.952-36.691-22.303c-14.472-15.351-12.248,1.823-9.804,11.542c2.443,9.719,25.518,33.295,33.996,35.911
				c8.477,2.617,27.486,21.969,27.486,21.969L1819.391,1989.186z"/>
			
				<linearGradient id="SVGID_00000005264080636479714340000010660503292380716990_" gradientUnits="userSpaceOnUse" x1="4553.4756" y1="3260.5588" x2="4484.3916" y2="3032.769" gradientTransform="matrix(-0.9999 0.0138 0.0138 0.9999 6904.6699 -14.86)">
				<stop  offset="0" style="stop-color:#444B8C"/>
				<stop  offset="0.9964" style="stop-color:#26264F"/>
			</linearGradient>
			<path style="fill:url(#SVGID_00000005264080636479714340000010660503292380716990_);" d="M2462.438,3196.894
				c7.071,14.422,5.087,20.619,3.326,23.345c-5.161,7.999-17.583,0.445-50.013,4.286c-3.804,0.451-11.062,1.433-20.121-0.702
				c-7.759-1.829-16.908-5.958-16.518-8.038c0.143-0.757,1.521-1.059,2.044-1.171c9-1.918,65.337-19.208,65.337-19.208
				L2462.438,3196.894z"/>
			
				<linearGradient id="SVGID_00000096043684619505640260000010387037129354920609_" gradientUnits="userSpaceOnUse" x1="4493.9219" y1="3216.2009" x2="4493.9219" y2="2850.2495" gradientTransform="matrix(-0.9999 0.0138 0.0138 0.9999 6904.6699 -14.86)">
				<stop  offset="0" style="stop-color:#FFC444"/>
				<stop  offset="0.9964" style="stop-color:#F36F56"/>
			</linearGradient>
			<path style="fill:url(#SVGID_00000096043684619505640260000010387037129354920609_);" d="M2466.762,3165.191l-5.031,32.239
				c0,0-13.847,9.788-17.487-2.094c-2.617-8.548-2.544-31.585-2.544-31.585L2466.762,3165.191z"/>
			
				<linearGradient id="SVGID_00000152973311287519128940000000114793783104084648_" gradientUnits="userSpaceOnUse" x1="4622.8481" y1="3202.5376" x2="4622.8481" y2="2836.5647" gradientTransform="matrix(-0.9999 0.0138 0.0138 0.9999 6904.6699 -14.86)">
				<stop  offset="0" style="stop-color:#FFC444"/>
				<stop  offset="0.9964" style="stop-color:#F36F56"/>
			</linearGradient>
			<polygon style="fill:url(#SVGID_00000152973311287519128940000000114793783104084648_);" points="2308.883,3167.404 
				2322.477,3204.523 2342.232,3201.376 2337.652,3167.005 			"/>
			
				<linearGradient id="SVGID_00000150804539069468001180000017356445853384892588_" gradientUnits="userSpaceOnUse" x1="4648.2925" y1="3216.3708" x2="4579.2085" y2="2988.5803" gradientTransform="matrix(-0.9999 0.0138 0.0138 0.9999 6904.6699 -14.86)">
				<stop  offset="0" style="stop-color:#444B8C"/>
				<stop  offset="0.9964" style="stop-color:#26264F"/>
			</linearGradient>
			<path style="fill:url(#SVGID_00000150804539069468001180000017356445853384892588_);" d="M2328.629,3224.967
				c9.563-11.347,18.1-10.318,19.823-18.115c1.354-6.127-2.398-13.641-8.058-16.495c-7.957-4.01-17.594,2.253-19.771,3.667
				c-14.79,9.615-10.762,24.65-24.707,31.171c-2.807,1.313-7.253,2.703-11.942,7.097c-1.99,1.866-6.922,6.487-5.766,9.669
				c1.335,3.681,10.128,3.553,18.487,3.432c10.032-0.144,15.046-0.213,19.87-3.225
				C2323.25,3237.995,2321.249,3233.724,2328.629,3224.967z"/>
			
				<linearGradient id="SVGID_00000010298536077193433460000007865215958605997208_" gradientUnits="userSpaceOnUse" x1="4462.3047" y1="2426.5383" x2="4428.6963" y2="3182.7258" gradientTransform="matrix(-0.9999 0.0138 0.0138 0.9999 6904.6699 -14.86)">
				<stop  offset="0.0036" style="stop-color:#F36F56"/>
				<stop  offset="1" style="stop-color:#FFC444"/>
			</linearGradient>
			<path style="fill:url(#SVGID_00000010298536077193433460000007865215958605997208_);" d="M2572.467,2394.064
				c-3.654,74.987-14.389,138.998-26.603,191.181c-13.139,56.136-20.297,65.731-24.854,104.645
				c-9.914,84.68,17.171,97.414,20.136,193.43c3.273,106.024-26.694,189.591-38.452,221.461
				c-10.28,27.861-20.897,50.311-28.853,65.891c-9.892,8.257-24.668,4.689-40.252,1.17c-3.708-96.182-8.957-186.735-12.665-282.916
				c-15.496-144.905-30.993-289.804-46.491-434.706C2440.445,2434.166,2506.455,2414.118,2572.467,2394.064z"/>
			
				<linearGradient id="SVGID_00000075145976535185386650000017265716585843315876_" gradientUnits="userSpaceOnUse" x1="4462.3047" y1="2426.5383" x2="4428.6963" y2="3182.7251" gradientTransform="matrix(-0.9999 0.0138 0.0138 0.9999 6904.6699 -14.86)">
				<stop  offset="0.0036" style="stop-color:#F36F56"/>
				<stop  offset="1" style="stop-color:#FFC444"/>
			</linearGradient>
			<path style="opacity:0.3;fill:url(#SVGID_00000075145976535185386650000017265716585843315876_);" d="M2433.587,3171.843
				c-3.708-96.182-8.957-186.735-12.665-282.916c-15.496-144.905-30.993-289.804-46.491-434.706
				c66.013-20.055,132.023-40.104,198.035-60.157c-0.241,4.965-0.594,9.751-0.895,14.625
				c-93.681,77.894-113.038,140.776-113.066,183.951c-0.033,52.365,28.032,78.925,20.812,154.694
				c-5.162,54.176-21.679,63.386-22.722,112.351c-1.343,63.051,24.958,99.082,37.356,135.8
				c11.982,35.487,15.445,85.46-10.683,155.873c-3.388,7.257-6.584,13.746-9.428,19.315
				C2463.948,3178.928,2449.172,3175.364,2433.587,3171.843z"/>
			
				<linearGradient id="SVGID_00000066482684514707178620000012618311737218521740_" gradientUnits="userSpaceOnUse" x1="5070.9458" y1="2739.207" x2="4330.1982" y2="2705.5361" gradientTransform="matrix(-0.9999 0.0138 0.0138 0.9999 6904.6699 -14.86)">
				<stop  offset="0.0036" style="stop-color:#F36F56"/>
				<stop  offset="1" style="stop-color:#FFC444"/>
			</linearGradient>
			<path style="fill:url(#SVGID_00000066482684514707178620000012618311737218521740_);" d="M2460.489,2450.101
				c-59.404,72.744-93.287,140.751-112.835,188.395c-23.522,57.322-40.575,100.282-35.229,155.923
				c5.883,61.238,33.653,83.245,52.096,135.451c17.886,50.632,26.602,128.541-20.064,244.472
				c-11.743,4.065-23.486,8.132-35.228,12.194c-7.802-31.328-20.423-78.19-39.295-133.999
				c-37.396-110.592-74.67-183.368-84.751-205.974c-35.5-79.607-39.088-221.724,108.674-495.932
				C2349.401,2383.787,2404.945,2416.942,2460.489,2450.101z"/>
			<path style="fill:#FFFFFF;" d="M1788.466,2010.009c10.086-16.199,20.175-32.398,30.262-48.596
				c63.344,100.097,121.108,125.353,162.76,129.423c76.194,7.446,180.324-57.042,309.166-134.675
				c18.028-10.863,53.643-32.771,94.956-25.139c9.9,1.83,41.914,9.38,79.623,57.104c70.604,89.351,27.971,150.955,86.915,215.064
				c42.506,46.229,69.685,19.641,131.358,80.29c45.557,44.804,43.33,71.708,83.973,90.217c49.631,22.601,83.877-3.438,111.58,23.753
				c22.344,21.929,27.486,65.778,9.705,87.344c-22.035,26.729-65.035,1.958-135.172,3.539
				c-118.296,2.67-135.668,76.293-274.235,90.252c-46.3,4.663-103.21,9.529-142.235-25.448
				c-19.476-17.455-26.888-37.844-45.208-124.217c-36.294-171.108-36.689-183.016-52.713-196.614
				c-54.081-45.896-132.402,26.94-233.715,6.008C1946.247,2226.078,1865.25,2178.905,1788.466,2010.009z"/>
			<path style="opacity:0.5;fill:#D8DEE8;" d="M2541.295,2527.265c-28.603-24.795-20.389-62.382-58.926-90.412
				c-49.114-35.723-93.769,2.548-128.282-24.603c-59.028-46.434,35.638-186.637-32.031-271.773
				c-32.31-40.648-90.79-55.11-133.155-51.975c-94.056,6.963-117.297,101.323-203.796,111.789
				c-20.502,2.479-46.12,0.431-77.006-13.313c35.555,31.513,68.974,45.464,97.385,51.335
				c101.313,20.932,179.633-51.906,233.714-6.009c16.025,13.602,16.419,25.507,52.713,196.614
				c18.321,86.376,25.733,106.764,45.208,124.217c41.392,37.096,102.755,30.012,142.236,25.452
				c11.699-1.35,67.791-8.54,122.065-33.294C2572.708,2545.781,2553.914,2538.204,2541.295,2527.265z"/>
			
				<linearGradient id="SVGID_00000076581580097756660240000015000135799461020091_" gradientUnits="userSpaceOnUse" x1="-341.0162" y1="3034.7991" x2="-330.5972" y2="3420.293" gradientTransform="matrix(0.8698 -0.4935 0.4935 0.8698 953.2327 -1091.0162)">
				<stop  offset="0.0036" style="stop-color:#F36F56"/>
				<stop  offset="1" style="stop-color:#FFC444"/>
			</linearGradient>
			<path style="fill:url(#SVGID_00000076581580097756660240000015000135799461020091_);" d="M2279.039,1867.601
				c0,0,12.944,31.976,31.625,52.749c16.885,18.773,69.712,15.664,81.166,17.14c11.451,1.476-11.407,25.69-38.457,38.415
				c-27.046,12.726-109.387,34.645-127.579,29.112c-18.192-5.531,8.129-13.929,25.551-28.346
				c17.422-14.419,15.168-57.656,5.359-74.176C2246.895,1885.973,2279.039,1867.601,2279.039,1867.601z"/>
			<g>
				
					<linearGradient id="SVGID_00000173139567064932148720000012328630269359824787_" gradientUnits="userSpaceOnUse" x1="312.1319" y1="2938.8762" x2="242.0879" y2="3052.1829" gradientTransform="matrix(0.7929 -0.6094 0.6094 0.7929 237.7847 -268.1027)">
					<stop  offset="0" style="stop-color:#FFC444"/>
					<stop  offset="0.9964" style="stop-color:#F36F56"/>
				</linearGradient>
				<path style="fill:url(#SVGID_00000173139567064932148720000012328630269359824787_);" d="M2235.42,1920.918
					c-10.5-18.069-5.601-38.579-4.499-43.012c4.617-18.554,6.303-21.361,9.784-25.268l4.917-5.121c0,0,0.306-0.223,0.628-0.441
					c3.41-2.307,16.107-6.001,18.842-6.119c8.738-0.37,26.274,31.09,36.083,79.443c1.611,3.495,3.222,6.99,4.83,10.485
					c17.013-8.886,22.804-9.035,24.582-6.967c3.85,4.48,2.247,39.278-12.663,51.356c-18.699,15.146-49.108-31.617-49.283-36.323
					C2264.846,1938.078,2243.155,1934.228,2235.42,1920.918z"/>
				
					<linearGradient id="SVGID_00000017486534124004489650000000291207988037128085_" gradientUnits="userSpaceOnUse" x1="-535.5698" y1="2219.7998" x2="-600.8218" y2="2325.3545" gradientTransform="matrix(0.6265 -0.7793 0.7793 0.6265 853.3584 65.6927)">
					<stop  offset="0" style="stop-color:#FFC444"/>
					<stop  offset="0.9964" style="stop-color:#F36F56"/>
				</linearGradient>
				<path style="fill:url(#SVGID_00000017486534124004489650000000291207988037128085_);" d="M2254.241,1896.611
					c2.336-5.914,9.909-2.881,11.61,3.549c1.701,6.429-2.807,14.736-9.19,15.028
					C2250.279,1915.479,2251.097,1904.568,2254.241,1896.611z"/>
				
					<linearGradient id="SVGID_00000174603455374889358150000016772685077656022673_" gradientUnits="userSpaceOnUse" x1="1614.7267" y1="2481.0156" x2="1165.4879" y2="2945.9255" gradientTransform="matrix(0.9339 -0.3576 0.3576 0.9339 407.4672 -197.234)">
					<stop  offset="0" style="stop-color:#AB316D"/>
					<stop  offset="1" style="stop-color:#792D3D"/>
				</linearGradient>
				<path style="fill:url(#SVGID_00000174603455374889358150000016772685077656022673_);" d="M3046.937,1692.579
					c-77.48-57.57-211.671,7.468-232.194,17.415c-57.979,28.1-75.564,56.946-133.511,63.853
					c-52.192,6.222-55.192-15.121-104.486-11.61c-100.016,7.125-130.355,98.025-197.364,81.268
					c-16.746-4.188-36.711-15.331-82.952-26.446c-11.587-2.785-29.839-6.764-46.447,2.306c-3.761,2.055-16.325,8.821-18.166,21.708
					c-1.492,10.443,4.85,21.732,12.249,27.698c4.424,3.565,6.149,2.975,8.157,5.992c5.642,8.477-6.333,23.262-2.397,26.691
					c2.81,2.451,9.632-4.479,13.743-1.852c4.505,2.88-1.243,12.757,2.86,25.555c-3.277,9.708,1.101,24.232,11.191,40.413
					c15.199,24.375,25.874,34.455,45.466,50.369c54.267,44.079,40.253,92.163,79.514,106.197
					c27.985,10.004,40.496-12.5,95.972-21.823c49.712-8.355,89.092,1.408,124.612,10.214
					c95.818,23.756,95.875,61.822,162.535,75.462c78.747,16.114,180.416-16.187,220.584-81.267
					c28.447-46.093,1.191-68.354,34.829-150.926c26.795-65.775,51.24-69.197,58.048-116.096
					C3106.005,1790.683,3091.383,1725.605,3046.937,1692.579z"/>
			</g>
		</g>
	</g>
</g>
</svg>
